<?xml version="1.0" encoding="utf-8"?>
<!-- Generator: Adobe Illustrator 21.0.2, SVG Export Plug-In . SVG Version: 6.00 Build 0)  -->
<svg version="1.1" id="Warstwa_1" xmlns="http://www.w3.org/2000/svg" xmlns:xlink="http://www.w3.org/1999/xlink" x="0px" y="0px"
	 viewBox="-270.002 267.417 300.003 60.863" style="enable-background:new -270.002 267.417 300.003 60.863;" xml:space="preserve">
<style type="text/css">
	.st0{fill:#81CCDE;}
	.st1{fill:#00B5CE;}
	.st2{fill:#FFFFFF;}
</style>
<g>
	<path class="st0" d="M-243.724,315.264l-3.988,12.714c-0.02-0.01-0.046-0.015-0.066-0.02L-243.724,315.264z"/>
	<path class="st0" d="M-243.724,315.264l-3.988,12.714c-0.02-0.01-0.046-0.015-0.066-0.02L-243.724,315.264z"/>
	<path class="st0" d="M-243.724,315.264l-3.988,12.714c-0.02-0.01-0.046-0.015-0.066-0.02L-243.724,315.264z"/>
	<polygon class="st0" points="-243.609,315.282 -243.725,315.261 -243.69,315.165 	"/>
	<polygon class="st1" points="-222.899,308.297 -222.986,308.47 -223.123,308.373 	"/>
	<polygon class="st1" points="-243.258,313.798 -243.253,313.798 -243.395,314.245 -243.69,315.165 -243.411,314.281 	"/>
	<polygon class="st1" points="-241.749,309.08 -241.338,307.794 -241.744,309.08 -242.938,312.808 	"/>
	<path class="st1" d="M-224.84,307.129l-0.838-0.604v-0.005L-224.84,307.129z"/>
	<polygon class="st1" points="-223.123,308.373 -224.184,307.606 -224.84,307.134 -224.84,307.129 -224.164,307.617 	"/>
	<g>
		<path class="st2" d="M-231.315,300.719c0.062-2.197,0.114-4.368,0.177-6.592c-2.067,1.436-4.045,2.819-6.07,4.223
			c0.381,0.282,0.762,0.569,1.138,0.851h0.005c1.566,1.169,3.111,2.327,4.698,3.512
			C-231.352,302.045-231.331,301.377-231.315,300.719z"/>
		<path class="st2" d="M-234.051,291.445h0.005c0.893,0.287,1.791,0.574,2.699,0.861c-0.303-1.123-0.605-2.234-0.903-3.341
			c-0.417-1.535-0.83-3.064-1.248-4.608c-2.124,1.759-4.202,3.481-6.321,5.24C-237.872,290.218-235.971,290.829-234.051,291.445z"/>
		<path class="st2" d="M-237.829,299.19c-0.757,2.291-1.493,4.525-2.249,6.822c2.719-0.835,5.355-1.644,8.064-2.474
			C-233.982,302.066-235.898,300.636-237.829,299.19z"/>
		<path class="st2" d="M-243.493,282.148c-2.051,2.171-4.055,4.29-6.112,6.472c2.709,0.209,5.329,0.402,8.012,0.606
			C-242.234,286.835-242.856,284.523-243.493,282.148z"/>
		<path class="st2" d="M-234.358,283.704c-2.751-0.642-5.413-1.264-8.132-1.894c0.637,2.385,1.258,4.703,1.895,7.067
			C-238.508,287.144-236.456,285.447-234.358,283.704z"/>
		<path class="st2" d="M-241.07,305.662c0.757-2.291,1.493-4.525,2.234-6.785h-7.062
			C-244.281,301.147-242.694,303.381-241.07,305.662z"/>
		<path class="st2" d="M-237.809,297.494c2.031-1.415,3.999-2.788,6.05-4.217c-0.987-0.314-1.963-0.627-2.939-0.94
			c-1.791-0.569-3.565-1.138-5.366-1.717c0.7,2.124,1.373,4.191,2.062,6.279C-237.939,297.097-237.877,297.296-237.809,297.494z"/>
		<path class="st2" d="M-230.271,301.052c-0.016,0.574-0.031,1.149-0.047,1.728c0.626-0.386,1.242-0.772,1.858-1.148
			c1.744-1.08,3.461-2.145,5.199-3.22c-2.292-1.472-4.526-2.897-6.822-4.37C-230.151,296.407-230.208,298.719-230.271,301.052z"/>
		<path class="st2" d="M-222.906,297.389c-0.313-2.902-0.615-5.731-0.924-8.618c-1.967,1.451-3.883,2.861-5.83,4.296
			C-227.406,294.513-225.188,295.927-222.906,297.389z"/>
		<path class="st2" d="M-231.457,287.874c0.392,1.451,0.783,2.892,1.18,4.348c1.958-1.441,3.873-2.855,5.836-4.301
			c-1.785-0.799-3.549-1.587-5.324-2.38h-0.005c-0.877-0.397-1.754-0.788-2.642-1.185c0.318,1.185,0.637,2.354,0.955,3.513V287.874z
			"/>
		<path class="st2" d="M-245.898,297.786h7.052c-0.746-2.276-1.477-4.515-2.234-6.817
			C-242.694,293.255-244.276,295.489-245.898,297.786z"/>
		<path class="st2" d="M-211.237,312.264l-0.011-0.92l-0.157-13.896l0.001-0.001l-0.153-13.806l-0.015-1.112
			c-0.259-2.906-2.245-5.308-4.927-6.182c-0.061-0.015-0.127-0.041-0.193-0.056l-13.618-4.262l-13.761-4.292
			c-0.675-0.208-1.391-0.32-2.133-0.32c-2.103,0-3.998,0.909-5.313,2.352c-0.005,0-0.005,0.005-0.01,0.015l-0.183,0.254
			c-0.01,0.011-0.02,0.021-0.025,0.036l-0.559,0.777c-0.005,0.015-0.01,0.02-0.015,0.03l-0.178,0.249l-7.828,11.023l-7.787,10.977
			l-1.057,1.488c-0.538,0.996-0.843,2.144-0.843,3.368c0,1.432,0.422,2.773,1.153,3.901l0.549,0.736l0.386,0.513l7.954,10.695
			l0.004,0l8.257,11.102l0.665,0.899c0.864,0.985,1.981,1.722,3.256,2.128l0.064,0.02c0.661,0.198,1.357,0.3,2.083,0.3
			c0.539,0,1.067-0.061,1.575-0.173l1.412-0.472l12.907-4.353l13.314-4.495l0.579-0.193c1.336-0.508,2.484-1.402,3.297-2.555
			l-0.001-0.001c0.762-1.067,1.235-2.357,1.311-3.744V312.264z M-222.06,301.44c-0.079,0.72-0.157,1.441-0.23,2.161v0.005
			c-0.13,1.211-0.261,2.417-0.386,3.628c-0.068,0.642-0.146,1.289-0.209,1.931c-0.031,0.313-0.193,0.48-0.48,0.6
			c-3.178,1.305-6.347,2.636-9.536,3.915c-0.601,0.246-1.274,0.303-1.916,0.444c-2.861,0.616-5.711,1.227-8.571,1.848
			c-0.261,0.057-0.46-0.016-0.637-0.214c-2.265-2.542-4.536-5.079-6.796-7.631c-0.245-0.272-0.459-0.58-0.642-0.893
			c-1.634-2.845-3.257-5.7-4.886-8.55c-0.141-0.245-0.131-0.459,0.005-0.71c1.655-2.933,3.294-5.872,4.943-8.805
			c0.157-0.277,0.345-0.538,0.564-0.773c2.375-2.527,4.755-5.048,7.13-7.574c0.214-0.224,0.423-0.287,0.737-0.213
			c3.246,0.762,6.503,1.514,9.755,2.276c0.204,0.047,0.402,0.146,0.595,0.235c1.158,0.522,2.317,1.039,3.476,1.561h0.005
			c1.853,0.835,3.712,1.66,5.575,2.474c0.465,0.204,0.679,0.433,0.726,0.95c0.224,2.364,0.49,4.724,0.741,7.083
			c0.11,1.002,0.23,1.999,0.345,3.001c0.01,0.083,0.01,0.167,0.01,0.224C-221.851,299.436-221.956,300.438-222.06,301.44z"/>
		<path class="st2" d="M-242.804,314.755c2.829-0.606,5.585-1.195,8.441-1.806c-2.114-1.764-4.166-3.476-6.264-5.23
			C-241.358,310.089-242.068,312.391-242.804,314.755z"/>
		<path class="st2" d="M-232.448,312.364c2.704-1.117,5.314-2.192,7.976-3.289c-2.036-1.498-4.025-2.954-6.076-4.452
			C-231.185,307.228-231.806,309.759-232.448,312.364z"/>
		<path class="st2" d="M-239.818,307.03c2.124,1.775,4.197,3.507,6.306,5.266c0.642-2.615,1.268-5.172,1.91-7.782
			C-234.369,305.36-237.057,306.184-239.818,307.03z"/>
		<path class="st2" d="M-227.139,302.056c-0.93,0.568-1.859,1.143-2.793,1.722c2.047,1.498,4.051,2.965,6.097,4.463
			c0.177-1.665,0.35-3.309,0.527-4.964c0.13-1.274,0.266-2.547,0.407-3.846c-1.43,0.882-2.834,1.753-4.238,2.62V302.056z"/>
		<path class="st2" d="M-249.635,307.891c1.973,2.203,3.888,4.343,5.841,6.525c0.73-2.365,1.445-4.672,2.171-7.031
			C-244.307,307.552-246.927,307.719-249.635,307.891z"/>
		<path class="st2" d="M-255.012,298.872c1.398,2.463,2.782,4.896,4.197,7.381c1.049-2.501,2.067-4.928,3.095-7.381H-255.012z"/>
		<path class="st2" d="M-250.816,290.264c-1.415,2.537-2.798,5.006-4.202,7.522h7.297
			C-248.754,295.28-249.772,292.806-250.816,290.264z"/>
		<path class="st2" d="M-246.812,299.404c-1.049,2.511-2.073,4.948-3.126,7.459c2.708-0.178,5.36-0.345,8.069-0.517
			C-243.534,304.008-245.152,301.732-246.812,299.404z"/>
		<path class="st2" d="M-241.854,290.254c-2.724-0.203-5.376-0.401-8.085-0.605c1.054,2.552,2.078,5.047,3.132,7.61
			C-245.148,294.905-243.523,292.613-241.854,290.254z"/>
	</g>
	<path class="st2" d="M-204.586,279.927c0-0.51,0.408-0.969,0.969-0.969h21.104c0.561,0,0.969,0.459,0.969,0.969v5.557
		c0,0.51-0.408,0.969-0.969,0.969h-14.12v7.341h11.623c0.51,0,0.969,0.459,0.969,0.969v5.557c0,0.51-0.459,0.968-0.969,0.968
		h-11.623v12.387c0,0.51-0.459,0.969-0.969,0.969h-6.015c-0.561,0-0.969-0.459-0.969-0.969L-204.586,279.927z"/>
	<path class="st2" d="M-168.752,279.621c0-0.357,0.306-0.663,0.612-0.663h10.807c9.89,0,17.944,8.004,17.944,17.791
		c0,9.941-8.054,17.893-17.944,17.893h-10.807c-0.306,0-0.612-0.306-0.612-0.663L-168.752,279.621z M-157.742,312.45
		c8.921,0,15.803-6.78,15.803-15.701c0-8.819-6.882-15.599-15.803-15.599h-8.615v31.3h8.62H-157.742z"/>
	<path class="st2" d="M-109.212,278.449c10.246,0,18.402,8.207,18.402,18.403c0,10.246-8.156,18.301-18.402,18.301
		c-10.195,0-18.352-8.054-18.352-18.301c0-10.196,8.15-18.403,18.35-18.403H-109.212z M-109.212,312.909
		c8.921,0,16.16-7.137,16.16-16.058c0-8.921-7.239-16.16-16.16-16.16s-16.109,7.239-16.109,16.16c0,8.921,7.19,16.058,16.11,16.058
		H-109.212z"/>
	<path class="st2" d="M-72.052,278.806c0.051-0.204,0.255-0.357,0.459-0.357h0.561c0.255,0,0.408,0.102,0.51,0.357l10.501,31.3
		h0.102l10.552-31.3c0.102-0.255,0.255-0.357,0.509-0.357h0.561c0.204,0,0.408,0.153,0.459,0.357l7.238,35.174
		c0.102,0.51-0.102,0.663-0.561,0.663h-1.223c-0.306,0-0.561-0.255-0.612-0.561l-5.76-29.873h-0.102l-10.297,30.535
		c-0.102,0.306-0.408,0.408-0.714,0.408h-0.204c-0.255,0-0.561-0.051-0.663-0.408l-10.298-30.535h-0.102l-5.761,29.873
		c-0.051,0.306-0.306,0.561-0.612,0.561h-1.223c-0.459,0-0.663-0.153-0.561-0.663l7.22-35.174H-72.052z"/>
	<path class="st2" d="M-26.532,279.621c0-0.357,0.306-0.663,0.663-0.663h20.442c0.357,0,0.663,0.306,0.663,0.663v0.867
		c0,0.357-0.306,0.663-0.663,0.663h-18.657v14.07h16.16c0.357,0,0.663,0.306,0.663,0.662v0.867c0,0.357-0.306,0.662-0.663,0.662
		h-16.16v15.089h18.657c0.357,0,0.663,0.306,0.663,0.663v0.816c0,0.357-0.306,0.663-0.663,0.663h-20.442
		c-0.357,0-0.663-0.306-0.663-0.663L-26.532,279.621L-26.532,279.621z"/>
	<path class="st2" d="M7.928,309.902l0.459-0.612c0.357-0.408,0.714-0.561,1.122-0.204c0.509,0.458,4.282,3.925,9.43,3.925
		c4.639,0,8.564-3.11,8.564-6.831c0-4.537-3.721-6.576-9.89-8.666c-5.913-2.09-9.838-4.18-9.838-10.043
		c0-3.823,3.059-9.023,11.011-9.023c5.047,0,8.768,2.6,8.768,2.6c0.204,0.153,0.561,0.51,0.204,1.07
		c-0.153,0.204-0.306,0.459-0.408,0.663c-0.306,0.408-0.612,0.561-1.122,0.255c-0.153-0.102-3.569-2.396-7.494-2.396
		c-6.27,0-8.615,3.874-8.615,6.78c0,4.333,3.314,6.219,8.462,7.902c6.98,2.396,11.42,4.843,11.42,10.756
		c0,5.098-5.251,9.074-11.113,9.074c-6.067,0-10.145-3.569-10.807-4.18c-0.31-0.255-0.56-0.51-0.15-1.07H7.928z"/>
</g>
</svg>
