<?xml version="1.0" encoding="utf-8"?>
<!-- Generator: Adobe Illustrator 21.0.2, SVG Export Plug-In . SVG Version: 6.00 Build 0)  -->
<svg version="1.1" id="Warstwa_1" xmlns="http://www.w3.org/2000/svg" xmlns:xlink="http://www.w3.org/1999/xlink" x="0px" y="0px"
	 viewBox="-136.287 44.302 32.573 32.729" style="enable-background:new -136.287 44.302 32.573 32.729;" xml:space="preserve">
<style type="text/css">
	.st0{fill:none;stroke:#FFFFFF;stroke-miterlimit:10;}
</style>
<g>
	<polygon class="st0" points="-107.994,54.152 -122.209,54.152 -132.006,54.152 -135.697,76.53 -104.303,76.53 	"/>
	<path class="st0" d="M-118.419,44.802h-3.163c-3.59,0-6.5,2.91-6.5,6.5v7.23c0,1.494,0.509,2.866,1.357,3.964
		c-0.133-0.464-0.208-0.952-0.208-1.458v-9.621c0-2.929,2.375-5.304,5.304-5.304h3.256c2.929,0,5.304,2.375,5.304,5.304v9.621
		c0,0.506-0.075,0.994-0.208,1.458c0.847-1.098,1.357-2.47,1.357-3.964v-7.23C-111.919,47.712-114.829,44.802-118.419,44.802z"/>
</g>
</svg>
